# xmcd CD database file
#
# Track frame offsets:
#	150
#	18358
#	39184
#	57714
#	75017
#	92030
#	103097
#	116194
#	131996
#	146002
#	161371
#	174515
#	189514
#	205121
#	218710
#	234473
#	251449
#	261292
#	278313
#	294901
#	311955
#
# Disc length: 4347 seconds
#
# Revision: 0
# Processed by: cddbd v1.5.2PL0 Copyright (c) Steve Scherf et al.
# Submitted via: CDex 1.51
#
DISCID=2610f915
DTITLE=josé josé - para beny
DYEAR=1900
DGENRE=Blues
TTITLE0=40 y 20
TTITLE1=amor amor
TTITLE2=ando volando bajo
TTITLE3=así de fácil
TTITLE4=un poco más
TTITLE5=te extraño
TTITLE6=regálame esta noche
TTITLE7=sabrás que te quiero
TTITLE8=solo tú
TTITLE9=polvo enamorado
TTITLE10=reyna mia
TTITLE11=como fué
TTITLE12=novia mia
TTITLE13=cuando tu me quieras
TTITLE14=no me platiques mas
TTITLE15=lo que quedó de mi
TTITLE16=del altar a la tumba
TTITLE17=reloj
TTITLE18=la nave del olvido
TTITLE19=farolero
TTITLE20=la gloria eres tú
EXTD=
EXTT0=
EXTT1=
EXTT2=
EXTT3=
EXTT4=
EXTT5=
EXTT6=
EXTT7=
EXTT8=
EXTT9=
EXTT10=
EXTT11=
EXTT12=
EXTT13=
EXTT14=
EXTT15=
EXTT16=
EXTT17=
EXTT18=
EXTT19=
EXTT20=
PLAYORDER=
